<?xml version="1.0" encoding="utf-8"?>
<!-- Generator: Adobe Illustrator 25.4.1, SVG Export Plug-In . SVG Version: 6.00 Build 0)  -->
<svg version="1.1" id="Layer_1" xmlns="http://www.w3.org/2000/svg" xmlns:xlink="http://www.w3.org/1999/xlink" x="0px" y="0px"
	 viewBox="0 0 566.93 566.93" style="enable-background:new 0 0 566.93 566.93;" xml:space="preserve">
<style type="text/css">
	.st0{fill:#6A59A3;stroke:#000000;stroke-width:18;stroke-miterlimit:10;}
	.st1{fill:#FFFFFF;stroke:#000000;stroke-width:18;stroke-miterlimit:10;}
</style>
<path class="st0" d="M320.85,480h-74.2C146.33,480,65,398.67,65,298.35v-54.7C65,143.33,146.33,62,246.65,62h74.2
	c100.32,0,181.65,81.33,181.65,181.65v54.7C502.5,398.67,421.17,480,320.85,480z"/>
<path class="st1" d="M359.71,476.58H207.29C128.71,476.58,65,412.88,65,334.29v0C65,255.71,128.71,192,207.29,192h152.42
	C438.29,192,502,255.71,502,334.29v0C502,412.88,438.29,476.58,359.71,476.58z"/>
<ellipse class="st1" cx="283.5" cy="390.5" rx="135.5" ry="130.5"/>
<ellipse class="st1" cx="283.8" cy="390.5" rx="92.93" ry="89.5"/>
<ellipse class="st1" cx="283.93" cy="390.48" rx="43.07" ry="41.48"/>
</svg>
